Coordinates
version=1
nRows=12
nColumns=24
inDegrees=yes

Units are S.I. units (second, meters, Newtons, ...)
Angles are in degrees.

endheader
time	pelvis_tilt	pelvis_list	pelvis_rotation	pelvis_tx	pelvis_ty	pelvis_tz	hip_flexion_r	hip_adduction_r	hip_rotation_r	knee_angle_r	ankle_angle_r	subtalar_angle_r	mtp_angle_r	hip_flexion_l	hip_adduction_l	hip_rotation_l	knee_angle_l	ankle_angle_l	subtalar_angle_l	mtp_angle_l	lumbar_extension	lumbar_bending	lumbar_rotation
      1.50033333	     -3.41007492	      6.95117690	     -0.43409196	      0.38230765	      0.91135677	      0.30797646	     18.68568480	    -12.07138804	     -8.71648367	    -68.86478392	      2.18968150	      6.57539022	      9.93572709	     11.37605681	     12.03193763	      0.27464980	    -12.78373860	      2.57717246	    -15.17380925	      0.78171274	     -4.45772101	    -11.95152925	      1.14296133
      1.50450000	     -3.36465466	      6.77969785	     -0.15800876	      0.38737280	      0.91249398	      0.30751379	     19.17878109	    -11.86475460	     -8.89738379	    -68.34713521	      2.77767022	      6.28126257	      9.76292014	     10.65444005	     11.90802457	      0.64088570	    -12.21465538	      2.53452763	    -15.10113711	      0.80347863	     -4.53857122	    -11.75948669	      0.80314911
      1.50866667	     -3.31087576	      6.60204037	      0.12774852	      0.39241946	      0.91362014	      0.30703014	     19.64575077	    -11.65738441	     -9.09239760	    -67.77187922	      3.33461354	      5.99396354	      9.57839536	      9.92607230	     11.77182629	      1.01944441	    -11.64549793	      2.48871312	    -15.03509606	      0.82444484	     -4.62839408	    -11.55644824	      0.44197682
      1.51283333	     -3.25584519	      6.43182926	      0.42724856	      0.39746915	      0.91471305	      0.30653295	     20.09560780	    -11.46680189	     -9.30487451	    -67.15205570	      3.87977640	      5.71205209	      9.31738880	      9.19499655	     11.63829820	      1.40603602	    -11.06856177	      2.40112771	    -14.99529135	      0.84781283	     -4.71020699	    -11.38414989	      0.03067960
      1.51700000	     -3.19987963	      6.25511343	      0.73039080	      0.40246972	      0.91576609	      0.30601867	     20.53822654	    -11.27164739	     -9.51575696	    -66.49012797	      4.39570745	      5.44179933	      8.97021304	      8.46914120	     11.49189905	      1.80815014	    -10.49336073	      2.32612159	    -14.94928586	      0.87597546	     -4.82370138	    -11.15459041	     -0.37268504
      1.52116667	     -3.13873491	      6.03754884	      1.04620848	      0.40747494	      0.91682094	      0.30553071	     20.93949883	    -11.02574288	     -9.74768814	    -65.73952344	      4.86265918	      5.17454845	      8.85802673	      7.76948572	     11.28477941	      2.15184465	     -9.98851053	      2.33336773	    -14.78773077	      0.88743274	     -4.91428099	    -10.92770217	     -0.58158238
      1.52533333	     -3.06237439	      5.87113102	      1.36908704	      0.41248421	      0.91782558	      0.30497313	     21.32583006	    -10.86237809	     -9.99030828	    -64.98253138	      5.30787393	      4.92022379	      8.45538302	      7.01287183	     11.13786555	      2.57380251	     -9.38542321	      2.23353959	    -14.81727005	      0.91100830	     -5.02082318	    -10.70834221	     -1.14587104
      1.52950000	     -2.97193927	      5.66328279	      1.67766922	      0.41746804	      0.91883348	      0.30447756	     21.67688552	    -10.63449125	    -10.21885626	    -64.14519614	      5.66947200	      4.64273605	      8.29430389	      6.27502110	     10.92553555	      2.91727781	     -8.84826312	      2.25231790	    -14.65138832	      0.92315847	     -5.15593118	    -10.45997143	     -1.39821727
      1.53366667	     -2.88859248	      5.47036087	      2.00308283	      0.42243453	      0.91977742	      0.30395816	     22.02264906	    -10.43401408	    -10.46098575	    -63.27385076	      6.02525275	      4.37601728	      8.10483177	      5.54709843	     10.72461131	      3.28309013	     -8.30561588	      2.21907138	    -14.54947229	      0.93477755	     -5.27846685	    -10.22812934	     -1.79577146
      1.53783333	     -2.80827698	      5.27633199	      2.33274816	      0.42738566	      0.92066801	      0.30344089	     22.35766418	    -10.23529993	    -10.70701009	    -62.35750449	      6.34814359	      4.11298362	      7.92487443	      4.83292007	     10.51324754	      3.63786743	     -7.77574186	      2.18811433	    -14.44668997	      0.94549609	     -5.39577505	     -9.99564874	     -2.16110342
      1.54200000	     -2.72804670	      5.09183378	      2.66021256	      0.43232095	      0.92150301	      0.30292321	     22.68373352	    -10.04867106	    -10.94716942	    -61.40303373	      6.63230568	      3.84568582	      7.73026167	      4.12386123	     10.30469254	      3.99121270	     -7.24665984	      2.15507593	    -14.34260314	      0.95675600	     -5.51005605	     -9.76974894	     -2.54524581
      1.54616667	     -2.65101646	      4.91089546	      2.98788571	      0.43724305	      0.92228132	      0.30241246	     23.00159749	     -9.86691825	    -11.18314806	    -60.40808860	      6.87455395	      3.57102308	      7.52419516	      3.42671962	     10.09115364	      4.32934322	     -6.72565554	      2.12567789	    -14.23766526	      0.96858130	     -5.62287538	     -9.54894854	     -2.92188996
